name ./resultDataOpenSim/trcMotMarkerGrf/sub10/grf-12-02.mot
datacolumns 19
datarows 17
range 0.46000000 0.52400000
endheader

                time	     ground_force_vx	     ground_force_vy	     ground_force_vz	     ground_force_px	     ground_force_py	     ground_force_pz	   l_ground_force_vx	   l_ground_force_vy	   l_ground_force_vz	   l_ground_force_px	   l_ground_force_py	   l_ground_force_pz	     ground_torque_x	     ground_torque_y	     ground_torque_z	   l_ground_torque_x	   l_ground_torque_y	   l_ground_torque_z	
          0.46000000	         62.65315260	        571.78707129	        -34.77869088	         -0.87516238	          0.00000000	          0.02350420	          0.00000000	          0.00000000	          0.00000000	          0.00000000	          0.00000000	          0.00000000	          0.00000000	          5.49037534	          0.00000000	          0.00000000	          0.00000000	          0.00000000	
          0.46400000	         66.68791273	        589.34968255	        -37.05270048	         -0.87227278	          0.00000000	          0.02380402	          0.00000000	          0.00000000	          0.00000000	          0.00000000	          0.00000000	          0.00000000	          0.00000000	          5.52388373	          0.00000000	          0.00000000	          0.00000000	          0.00000000	
          0.46800000	         71.53165076	        606.48776942	        -39.62462559	         -0.86924428	          0.00000000	          0.02411108	          0.00000000	          0.00000000	          0.00000000	          0.00000000	          0.00000000	          0.00000000	          0.00000000	          5.51154743	          0.00000000	          0.00000000	          0.00000000	          0.00000000	
          0.47200000	         76.97348723	        622.97304569	        -42.34430382	         -0.86607878	          0.00000000	          0.02440223	          0.00000000	          0.00000000	          0.00000000	          0.00000000	          0.00000000	          0.00000000	          0.00000000	          5.45779479	          0.00000000	          0.00000000	          0.00000000	          0.00000000	
          0.47600000	         82.64175531	        638.68562148	        -45.01424765	         -0.86277877	          0.00000000	          0.02465036	          0.00000000	          0.00000000	          0.00000000	          0.00000000	          0.00000000	          0.00000000	          0.00000000	          5.37151749	          0.00000000	          0.00000000	          0.00000000	          0.00000000	
          0.48000000	         88.11934258	        653.61007738	        -47.42700034	         -0.85935107	          0.00000000	          0.02482776	          0.00000000	          0.00000000	          0.00000000	          0.00000000	          0.00000000	          0.00000000	          0.00000000	          5.26416145	          0.00000000	          0.00000000	          0.00000000	          0.00000000	
          0.48400000	         93.06121538	        667.84257599	        -49.40267149	         -0.85581598	          0.00000000	          0.02491556	          0.00000000	          0.00000000	          0.00000000	          0.00000000	          0.00000000	          0.00000000	          0.00000000	          5.14742828	          0.00000000	          0.00000000	          0.00000000	          0.00000000	
          0.48800000	         97.27005355	        681.63734623	        -50.81448929	         -0.85221916	          0.00000000	          0.02490448	          0.00000000	          0.00000000	          0.00000000	          0.00000000	          0.00000000	          0.00000000	          0.00000000	          5.03122690	          0.00000000	          0.00000000	          0.00000000	          0.00000000	
          0.49200000	        100.72443388	        695.43018284	        -51.60440487	         -0.84863636	          0.00000000	          0.02478651	          0.00000000	          0.00000000	          0.00000000	          0.00000000	          0.00000000	          0.00000000	          0.00000000	          4.92220345	          0.00000000	          0.00000000	          0.00000000	          0.00000000	
          0.49600000	        103.59000720	        709.70045941	        -51.80425752	         -0.84518588	          0.00000000	          0.02455674	          0.00000000	          0.00000000	          0.00000000	          0.00000000	          0.00000000	          0.00000000	          0.00000000	          4.82298086	          0.00000000	          0.00000000	          0.00000000	          0.00000000	
          0.50000000	        106.20155505	        724.71045146	        -51.54756651	         -0.84200326	          0.00000000	          0.02422289	          0.00000000	          0.00000000	          0.00000000	          0.00000000	          0.00000000	          0.00000000	          0.00000000	          4.73231752	          0.00000000	          0.00000000	          0.00000000	          0.00000000	
          0.50400000	        108.97165878	        740.41601261	        -51.03501346	         -0.83917998	          0.00000000	          0.02380746	          0.00000000	          0.00000000	          0.00000000	          0.00000000	          0.00000000	          0.00000000	          0.00000000	          4.64647685	          0.00000000	          0.00000000	          0.00000000	          0.00000000	
          0.50800000	        112.27314664	        756.67679099	        -50.45564014	         -0.83669620	          0.00000000	          0.02334247	          0.00000000	          0.00000000	          0.00000000	          0.00000000	          0.00000000	          0.00000000	          0.00000000	          4.56177781	          0.00000000	          0.00000000	          0.00000000	          0.00000000	
          0.51200000	        116.37594573	        773.48707869	        -49.91060154	         -0.83456543	          0.00000000	          0.02283584	          0.00000000	          0.00000000	          0.00000000	          0.00000000	          0.00000000	          0.00000000	          0.00000000	          4.47757966	          0.00000000	          0.00000000	          0.00000000	          0.00000000	
          0.51600000	        121.39971859	        790.93063915	        -49.38741793	         -0.83283658	          0.00000000	          0.02227382	          0.00000000	          0.00000000	          0.00000000	          0.00000000	          0.00000000	          0.00000000	          0.00000000	          4.39843073	          0.00000000	          0.00000000	          0.00000000	          0.00000000	
          0.52000000	        127.24626655	        808.92355496	        -48.77974413	         -0.83150698	          0.00000000	          0.02164303	          0.00000000	          0.00000000	          0.00000000	          0.00000000	          0.00000000	          0.00000000	          0.00000000	          4.33434726	          0.00000000	          0.00000000	          0.00000000	          0.00000000	
          0.52400000	        133.60427546	        827.03714055	        -47.91621563	         -0.83047451	          0.00000000	          0.02094291	          0.00000000	          0.00000000	          0.00000000	          0.00000000	          0.00000000	          0.00000000	          0.00000000	          4.29901714	          0.00000000	          0.00000000	          0.00000000	          0.00000000	
